<?xml version="1.0" encoding="UTF-8" standalone="no"?>
<!-- Created with Inkscape (http://www.inkscape.org/) -->

<svg
   xmlns:dc="http://purl.org/dc/elements/1.1/"
   xmlns:cc="http://creativecommons.org/ns#"
   xmlns:rdf="http://www.w3.org/1999/02/22-rdf-syntax-ns#"
   xmlns:svg="http://www.w3.org/2000/svg"
   xmlns="http://www.w3.org/2000/svg"
   xmlns:sodipodi="http://sodipodi.sourceforge.net/DTD/sodipodi-0.dtd"
   xmlns:inkscape="http://www.inkscape.org/namespaces/inkscape"
   width="130mm"
   height="50mm"
   viewBox="0 0 130 50"
   version="1.1"
   id="svg8"
   inkscape:version="0.92.2 (5c3e80d, 2017-08-06)"
   sodipodi:docname="logo2.svg">
  <defs
     id="defs2" />
  <sodipodi:namedview
     id="base"
     pagecolor="#ffffff"
     bordercolor="#666666"
     borderopacity="1.0"
     inkscape:pageopacity="0.0"
     inkscape:pageshadow="2"
     inkscape:zoom="0.70794662"
     inkscape:cx="330.86851"
     inkscape:cy="36.81782"
     inkscape:document-units="mm"
     inkscape:current-layer="layer1"
     showgrid="false"
     showguides="false"
     inkscape:window-width="1366"
     inkscape:window-height="705"
     inkscape:window-x="-8"
     inkscape:window-y="-8"
     inkscape:window-maximized="1"
     width="100mm" />
  <metadata
     id="metadata5">
    <rdf:RDF>
      <cc:Work
         rdf:about="">
        <dc:format>image/svg+xml</dc:format>
        <dc:type
           rdf:resource="http://purl.org/dc/dcmitype/StillImage" />
        <dc:title></dc:title>
      </cc:Work>
    </rdf:RDF>
  </metadata>
  <g
     inkscape:label="Capa 1"
     inkscape:groupmode="layer"
     id="layer1"
     transform="translate(0,-247)">
    <g
       id="g5360"
       transform="translate(0,0.52916667)">
      <text
         xml:space="preserve"
         style="font-style:normal;font-variant:normal;font-weight:bold;font-stretch:normal;font-size:24.35030937px;line-height:1.25;font-family:sans-serif;-inkscape-font-specification:'sans-serif Bold';letter-spacing:0px;word-spacing:0px;fill:#004455;fill-opacity:1;stroke:none;stroke-width:0.60875767"
         x="56.450035"
         y="258.13257"
         id="text5276"
         transform="scale(0.90668843,1.1029147)"><tspan
           sodipodi:role="line"
           id="tspan5274"
           x="56.450035"
           y="258.13257"
           style="font-style:normal;font-variant:normal;font-weight:bold;font-stretch:normal;font-family:sans-serif;-inkscape-font-specification:'sans-serif Bold';fill:#004455;stroke-width:0.60875767">Educa</tspan></text>
      <path
         inkscape:connector-curvature="0"
         id="rect5258"
         d="m 6.6255015,251.80358 c -1.9156893,-0.005 -3.4612529,1.54148 -3.4658019,3.4669 l -0.082126,34.75484 c -0.00455,1.92542 1.5336895,3.47939 3.449381,3.48396 l 37.4915574,0.0895 c 1.915689,0.005 3.461255,-1.54204 3.465806,-3.46746 l 0.08213,-34.75484 c 0.0045,-1.92542 -1.53369,-3.47883 -3.449381,-3.48341 z m 26.5534495,8.05987 c 1.95866,0.005 3.574643,0.37422 4.847096,1.10887 1.272454,0.73464 2.10721,1.65088 2.504775,2.74923 0.397589,1.0882 0.593552,2.7856 0.588101,5.09217 l -0.0055,2.3475 -6.649516,-0.0159 0.01017,-4.29811 c 0.0029,-1.24982 -0.06926,-2.02766 -0.215971,-2.33285 -0.136151,-0.31532 -0.446279,-0.47326 -0.930681,-0.47442 -0.547581,-10e-4 -0.895552,0.18573 -1.043866,0.56133 -0.148319,0.37561 -0.22373,1.18822 -0.226689,2.43804 l -0.02708,11.46203 c -0.0028,1.19901 0.06881,1.98131 0.215379,2.34746 0.146561,0.36615 0.477708,0.54979 0.993699,0.55102 0.494929,0.001 0.81668,-0.1809 0.964969,-0.54635 0.15882,-0.36542 0.240039,-1.22372 0.243231,-2.57515 l 0.0074,-3.09402 6.649516,0.0159 -0.0023,0.96013 c -0.0061,2.55045 -0.199455,4.35897 -0.581064,5.42498 -0.371085,1.06604 -1.199952,1.99893 -2.48656,2.7986 -1.276081,0.79968 -2.851718,1.1973 -4.726135,1.19282 -1.948157,-0.005 -3.552818,-0.34909 -4.814863,-1.0329 -1.262136,-0.68381 -2.097397,-1.62569 -2.505248,-2.82569 -0.407831,-1.21015 -0.608645,-3.02463 -0.602931,-5.44298 l 0.01703,-7.20888 c 0.0042,-1.7782 0.07059,-3.10927 0.199041,-3.99299 0.128482,-0.89387 0.504241,-1.75147 1.127481,-2.57304 0.63377,-0.82155 1.504114,-1.46502 2.610913,-1.92979 1.117353,-0.47491 2.39694,-0.71045 3.839609,-0.70701 z m -23.6154297,0.46192 14.5317317,0.0347 -0.01167,4.9384 -3.948657,-0.009 -0.04664,19.73784 -6.650079,-0.0159 0.04664,-19.73784 -3.9329971,-0.009 z"
         style="fill:#ff2a2a;stroke-width:0.34928688" />
      <text
         transform="scale(0.90668843,1.1029147)"
         id="text5268"
         y="258.13257"
         x="55.186703"
         style="font-style:normal;font-variant:normal;font-weight:bold;font-stretch:normal;font-size:24.35030937px;line-height:1.25;font-family:sans-serif;-inkscape-font-specification:'sans-serif Bold';letter-spacing:0px;word-spacing:0px;fill:#006680;fill-opacity:1;stroke:none;stroke-width:0.60875767"
         xml:space="preserve"><tspan
           style="font-style:normal;font-variant:normal;font-weight:bold;font-stretch:normal;font-family:sans-serif;-inkscape-font-specification:'sans-serif Bold';fill:#006680;stroke-width:0.60875767"
           y="258.13257"
           x="55.186703"
           id="tspan5266"
           sodipodi:role="line">Educa</tspan></text>
      <rect
         y="286.39383"
         x="51.802589"
         height="0.36584124"
         width="71.70665"
         id="rect5282"
         style="fill:#ff0000;stroke-width:0.28708842" />
      <rect
         y="291.7785"
         x="51.802589"
         height="0.36584124"
         width="71.70665"
         id="rect5286"
         style="fill:#ff0000;stroke-width:0.28708842" />
      <rect
         y="286.94553"
         x="51.799149"
         height="0.31209701"
         width="71.710098"
         id="rect5288"
         style="fill:#004455;stroke-width:0.22386526" />
      <rect
         y="293.04855"
         x="44.02161"
         height="0.53971869"
         width="79.487633"
         id="rect5336"
         style="fill:#ff2a2a;stroke-width:0.36713278" />
      <rect
         y="291.17892"
         x="51.804989"
         height="0.31209701"
         width="71.704262"
         id="rect5342"
         style="fill:#004455;stroke-width:0.22385615" />
      <text
         transform="scale(1.1353447,0.88078978)"
         id="text5346"
         y="329.34137"
         x="46.314129"
         style="font-style:normal;font-variant:normal;font-weight:bold;font-stretch:normal;font-size:4.34241009px;line-height:2;font-family:Calibri;-inkscape-font-specification:'Calibri Bold';letter-spacing:0px;word-spacing:0px;fill:#000000;fill-opacity:1;stroke:none;stroke-width:0.36186752"
         xml:space="preserve"><tspan
           style="font-style:normal;font-variant:normal;font-weight:bold;font-stretch:normal;font-family:Calibri;-inkscape-font-specification:'Calibri Bold';stroke-width:0.36186752"
           y="329.34137"
           x="46.314129"
           id="tspan5344"
           sodipodi:role="line">Tú decides, Nosotros te Ayudamos</tspan></text>
    </g>
  </g>
</svg>
